<svg width="70" height="72" viewBox="0 0 70 72" fill="none" xmlns="http://www.w3.org/2000/svg">
<path d="M49.0093 48.9621C55.7046 43.0061 59.5742 34.1039 58.2117 24.715C56.2202 10.9913 45.5501 2.02406 31.7152 1.07437C16.6919 0.0431002 3.40317 9.81079 1.25207 24.715C-1.19546 41.673 14.6226 57.4753 31.7152 56.2887C38.3089 55.831 44.3448 53.1116 49.0093 48.9621ZM49.0093 48.9621L69.0007 70.4097" stroke="white" stroke-width="2"/>
<path d="M23.7687 44.4522C24.3678 41.3968 21.468 38.2313 18.3742 38.5817C15.5542 38.9011 13.5448 41.667 14.0904 44.4522C14.5286 46.6896 16.1088 48.1618 18.3742 48.4187C20.9725 48.7134 23.2656 47.0182 23.7687 44.4522ZM23.7687 44.4522C23.7687 44.4522 40.5869 46.9908 41.5389 37.7884C42.4908 28.586 33.2885 28.586 33.2885 28.586M27.418 27.9514C27.3278 29.4828 28.5882 30.6609 30.1153 30.8073C31.621 30.9516 33.0256 30.0757 33.2885 28.586C33.5931 26.8602 31.8626 25.2773 30.1153 25.4128C28.6731 25.5246 27.5031 26.5074 27.418 27.9514ZM27.418 27.9514C27.418 27.9514 16.9463 26.6821 16.9463 17.4797C16.9463 8.27727 27.418 9.54658 27.418 9.54658M27.418 9.54658C27.3278 11.078 28.5882 12.2561 30.1153 12.4025C31.621 12.5468 33.0256 11.6709 33.2885 10.1812C33.5931 8.45537 31.8626 6.87249 30.1153 7.00799C28.6731 7.11983 27.5031 8.10259 27.418 9.54658ZM40.5869 15.2584L45.0294 10.1812M40.5869 10.1812L45.0294 15.2584M16.153 43.0243L18.3742 45.0868L21.3888 41.9136" stroke="white"/>
<path d="M41.8695 45.1395V45.0237" stroke="white" stroke-width="0.79331" stroke-linecap="round"/>
<path d="M45.0428 45.1395V45.0237" stroke="white" stroke-width="0.79331" stroke-linecap="round"/>
<path d="M45.0428 45.1395V45.0237" stroke="white" stroke-width="0.79331" stroke-linecap="round"/>
<path d="M45.0428 45.1395V45.0237" stroke="white" stroke-width="0.79331" stroke-linecap="round"/>
<path d="M48.216 45.1395V45.0237" stroke="white" stroke-width="0.79331" stroke-linecap="round"/>
</svg>
